Coordinates
version=1
nRows=16
nColumns=36
inDegrees=yes

Units are S.I. units (second, meters, Newtons, ...)
If the header above contains a line with 'inDegrees', this indicates whether rotational values are in degrees (yes) or radians (no).

endheader
time	pelvis_tilt	pelvis_list	pelvis_rotation	pelvis_tx	pelvis_ty	pelvis_tz	hip_flexion_r	hip_adduction_r	hip_rotation_r	knee_angle_r	knee_angle_r_beta	ankle_angle_r	subtalar_angle_r	mtp_angle_r	hip_flexion_l	hip_adduction_l	hip_rotation_l	knee_angle_l	knee_angle_l_beta	ankle_angle_l	subtalar_angle_l	mtp_angle_l	lumbar_extension	lumbar_bending	lumbar_rotation	arm_flex_r	arm_add_r	arm_rot_r	elbow_flex_r	pro_sup_r	arm_flex_l	arm_add_l	arm_rot_l	elbow_flex_l	pro_sup_l
      2.83333330	     -1.98171521	     -0.47336097	      8.61616375	     -0.24074423	      1.09765115	     -0.25978491	     16.99288825	     -7.64586735	     -4.46505101	     16.00066669	      0.27926432	      9.04824172	      8.35292443	     -7.49999987	     15.82658898	     -8.07018928	     -3.89943681	     14.23482869	      0.24844463	    -12.53295264	     -7.71696970	     -7.49999987	    -18.41750337	     -1.82838544	      1.20699276	    -82.79509640	    -59.13169198	     54.99412728	     26.53049904	      9.77900066	    -89.18315549	     -2.75912991	    -98.10148240	     29.11224125	     81.41285391
      2.85000000	     -1.21717414	     -0.80070226	      8.35135140	     -0.23284780	      1.05870466	     -0.25710267	     18.00435137	     -7.09860602	     -3.47967351	     16.59506141	      0.28963846	      8.40458303	      7.84867254	     -7.49999987	     17.11465583	     -8.51546497	     -3.24627395	     14.62835996	      0.25531305	    -13.11627202	     -9.43555141	     -7.49999987	    -19.48440060	     -1.68964006	      0.56865658	    -87.57196976	    -62.08130071	     51.17125741	     34.29271031	     11.39933453	    -90.17666639	      2.63602554	   -100.43137848	     32.69178718	     80.50877311
      2.86666670	      0.10931140	     -0.94865500	      8.07200212	     -0.21996114	      1.03316118	     -0.25622999	     18.36201010	     -6.66015596	     -3.95920400	     16.45026919	      0.28711136	      7.50960052	      7.13454959	     -7.49999987	     17.58827123	     -9.06519593	     -3.21950489	     15.19205358	      0.26515136	    -13.20792328	    -10.32449754	     -7.49999987	    -22.84904855	     -1.23836066	     -0.54760387	    -90.83531931	    -63.14936181	     42.75629759	     42.53980264	     10.20361814	    -88.14343913	      5.55158321	    -99.73260911	     31.25222464	     87.87822506
      2.88333330	      0.95005924	     -1.01998049	      8.15348152	     -0.20666372	      0.98971247	     -0.25733105	     19.62995601	     -6.35201105	     -4.51652304	     17.36653243	      0.30310317	      8.01945828	      7.19774134	     -7.49999987	     19.59411139	     -9.27768133	     -2.61251059	     16.87262777	      0.29448291	    -13.07035946	    -11.37440240	     -7.49999987	    -25.54139578	     -1.69512137	     -2.08380729	    -82.64555727	    -65.59672412	     56.47689689	     49.36138420	      9.27753747	    -86.45944260	      9.04037185	    -97.20127268	     31.22281713	    100.84395779
      2.90000000	      1.43896806	     -0.72585315	      8.35967836	     -0.19782980	      0.94579347	     -0.26131338	     22.32405264	     -6.56582296	     -4.38782070	     20.75666500	      0.36227215	      8.31185258	      6.20762434	     -7.49999987	     23.15895479	     -9.09816197	     -2.56361190	     21.21697710	      0.37030611	    -10.27694413	    -11.91309856	     -7.49999987	    -28.36035606	     -1.72948310	     -2.43048779	    -79.91074366	    -62.74433545	     55.88814387	     53.59348372	     13.27915387	    -82.53609663	     10.66286743	    -96.08442492	     32.78437262	     98.19206892
      2.91666670	      1.21500977	      0.03918547	      8.78850238	     -0.18392037	      0.90403904	     -0.26350767	     26.21735481	     -7.52205853	     -4.44117261	     24.96183893	      0.43566628	      9.43345326	      6.54065671	     -7.49999987	     27.57537151	     -7.97043464	     -1.83712012	     26.74719124	      0.46682655	     -7.05980193	    -13.40204330	     -7.49999987	    -31.32995611	     -1.25315669	     -3.88480214	    -69.95501303	    -59.99271600	     65.70323990	     55.44577030	      9.89746457	    -78.05064011	      0.61243855	    -37.20424165	      6.11731299	     90.44779686
      2.93333330	      0.37197441	      0.74096104	      9.07137649	     -0.16755748	      0.85457605	     -0.27108275	     31.97100999	     -8.51181219	     -3.23002782	     31.84443344	      0.55579021	     13.03625997	      6.31090265	     -7.49999987	     33.25299640	     -7.16837463	     -1.95645677	     34.36196541	      0.59972943	     -1.77939676	    -14.18357415	     -7.49999987	    -33.44170797	     -1.48018250	     -4.18355153	    -56.85526404	    -56.05330207	     77.70032006	     54.79116337	     10.55181309	    -69.98338680	      0.13260912	    -31.11719048	      4.86959476	     89.37872234
      2.95000000	     -1.13416756	      1.12601326	      9.13248229	     -0.14007616	      0.82193355	     -0.26212222	     39.06443332	     -8.78620981	     -1.11004361	     40.96631053	      0.71499700	     18.35587876	      4.75636937	     -7.49999987	     39.03862525	     -7.18338781	     -2.49263781	     42.74442700	      0.74603099	      3.98857873	    -14.49510965	     -7.49999987	    -34.29859626	     -1.60708682	     -3.30316187	    -43.70941027	    -49.22202450	     91.60056708	     49.28144573	      8.79894994	    -60.34767714	     -2.91415585	    -24.27151654	      3.67293318	     86.05486223
      2.96666670	     -2.69443701	      1.50672072	      9.46104055	     -0.12870897	      0.80075669	     -0.26074818	     45.75478470	     -8.91189864	      0.99620441	     50.15887320	      0.87543749	     23.12304910	      2.87158329	     -7.49999987	     44.45204534	     -7.26653863	     -2.95514579	     50.57463237	      0.88269385	      9.41650204	    -14.04964307	     -7.49999987	    -34.58997422	     -1.82269239	     -2.71699347	    -27.65204866	    -42.02692517	    110.37183098	     43.65869753	      7.05083285	    -47.89826020	     -5.89086951	    -18.67230904	      3.39868879	     73.76341636
      2.98333330	     -4.15891527	      1.72984522	     10.23282166	     -0.12453279	      0.76807664	     -0.25988805	     52.57574808	     -8.98594210	      2.86169278	     59.77219671	      1.04322163	     27.15347255	      1.44995174	     -7.49999987	     50.61833408	     -7.52712034	     -3.38874327	     59.09661742	      1.03143055	     15.08540287	    -12.78854239	     -7.49999987	    -36.24583391	     -1.41192942	      0.83941171	    -18.29138992	    -35.55699245	    111.72467232	     33.70119282	      7.09264899	    -30.04010870	    -10.54504521	    -16.85329321	      3.60441945	     72.55621353
      3.00000000	     -6.05817069	      1.88135409	     10.68618014	     -0.12900895	      0.73656565	     -0.26000048	     59.68682184	     -8.63741159	      4.78612729	     68.38843000	      1.19360327	     29.91898427	     -0.19905691	     -7.49999987	     57.22284853	     -8.10573976	     -3.92353064	     67.16487677	      1.17224824	     19.24645553	    -12.26525523	     -7.49999987	    -38.26498135	     -1.85310738	      4.05117816	     -9.80772358	    -23.22307521	    -41.43356055	      1.39007319	    101.13538025	    -11.70813840	    -14.45887999	      0.07311033	      4.78139473	     66.71075572
      3.01666670	     -7.70591500	      1.57771909	     10.94979855	     -0.12448552	      0.70701523	     -0.25871838	     65.92031566	     -8.27244168	      5.75101186	     75.63631152	      1.32010267	     32.32538403	     -1.06583302	     -7.49999987	     63.18540787	     -8.95579228	     -3.76256944	     74.22394811	      1.29545228	     22.87032442	    -11.67904286	     -7.49999987	    -41.83133987	     -2.83453672	      2.43359333	      2.45108858	    -23.57295513	    -18.75319471	     10.71481646	     84.65376761	      2.28955860	    -16.80210738	      0.30174158	      8.28475305	     72.99453633
      3.03333330	    -11.03817738	      0.76115397	     11.11943162	     -0.11537925	      0.68197728	     -0.26001872	     73.05876555	     -7.87758472	      6.28868814	     81.53132040	      1.42298998	     34.15350376	     -1.72201035	     -7.49999987	     70.21956919	     -9.82479970	     -3.32075545	     80.10674828	      1.39812651	     25.89771816	    -11.09490726	     -7.49999987	    -43.61876456	     -3.95234403	      2.64715825	     12.13046986	    -22.90647307	    -14.19106679	     19.64278921	     79.76210881	     14.64350188	    -18.26739022	      2.31496085	     10.96826707	     75.29221366
      3.05000000	    -14.34512519	      0.06167108	     10.98885013	     -0.10778781	      0.65806622	     -0.25864360	     79.47847941	     -7.43841782	      6.70703533	     86.19874954	      1.50445199	     35.47405801	     -2.35552122	     -7.49999987	     76.39155095	    -10.82832423	     -3.02838310	     84.86114240	      1.48110634	     28.32885538	    -10.57743483	     -7.49999987	    -44.37988681	     -5.61775184	      2.20649956	     23.63346007	    -21.26126671	    -12.34153839	     26.39545118	     77.90393106	     27.00101370	    -18.56914845	      2.83370446	     15.72281286	     74.73465133
      3.06666670	    -17.75050197	     -0.66011714	     11.00094961	     -0.10767171	      0.63848268	     -0.25233358	     85.72505805	     -7.22510890	      6.82601501	     90.19213641	      1.57414974	     36.21342533	     -3.21911333	     -7.49999987	     82.34938590	    -11.60381369	     -2.63848011	     88.82628839	      1.55031119	     29.96808836	    -10.42847698	     -7.49999987	    -44.39259307	     -6.67181660	      0.74356332	     35.09650773	    -20.00426908	    -10.20438086	     34.08118736	     78.00049976	     38.12443799	    -19.46274653	      3.00509867	     21.99868562	     76.02980390
      3.08333330	    -20.98172403	     -1.62903757	     10.60854676	     -0.09596961	      0.60788862	     -0.24747707	     91.60382503	     -6.52928654	      6.48402768	     94.17837090	      1.64372266	     37.15012288	     -3.89819536	     -7.49999987	     88.20852046	    -12.87456766	     -1.72593618	     92.90790921	      1.62154892	     31.14958751	    -10.55633301	     -7.49999987	    -41.60387860	     -7.21533030	      1.76812118	     41.47466419	    -19.83412100	     -7.82701986	     40.08935587	     77.98789721	     44.26901008	    -18.72339468	      3.05443130	     30.77440317	     77.70463851
